<svg width="59" height="38" viewBox="0 0 59 38" fill="none" xmlns="http://www.w3.org/2000/svg">
<path d="M17.2361 13.0084V18.0737H23.8197V21.0547H17.2361V28.3684H13.4272V10.04H25.081V13.0084H17.2361Z" fill="#3A0CA3"/>
<path d="M26.8027 19.2863H33.462V22.1411H26.8027V19.2863Z" fill="#3A0CA3"/>
<path fill-rule="evenodd" clip-rule="evenodd" d="M46.1763 10.4821C45.2682 10.1874 44.1878 10.04 42.935 10.04H36.755V28.3684H40.5386V22.0653H42.935C44.1542 22.0653 45.2178 21.9179 46.1259 21.6232C47.0339 21.32 47.7865 20.8989 48.3835 20.36C48.9804 19.8211 49.4261 19.1768 49.7204 18.4274C50.0146 17.6779 50.1618 16.8526 50.1618 15.9516C50.1618 15.1011 50.0188 14.3137 49.733 13.5895C49.4555 12.8653 49.0225 12.2421 48.4339 11.72C47.8453 11.1895 47.0928 10.7768 46.1763 10.4821ZM45.5331 18.3011C44.9866 18.8737 44.1205 19.16 42.935 19.16H40.5386V12.92H42.935C43.5235 12.92 44.0322 12.9916 44.461 13.1347C44.8899 13.2779 45.243 13.4842 45.5205 13.7537C45.8064 14.0147 46.0166 14.3347 46.1511 14.7137C46.294 15.0842 46.3655 15.4968 46.3655 15.9516C46.3655 16.9453 46.088 17.7284 45.5331 18.3011Z" fill="#3A0CA3"/>
<path fill-rule="evenodd" clip-rule="evenodd" d="M57.7551 36.7895V1H1V36.7895H57.7551Z" fill="#3A0CA3"/>
<path d="M17.2361 13.0084V18.0737H23.8197V21.0547H17.2361V28.3684H13.4272V10.04H25.081V13.0084H17.2361Z" stroke="white" stroke-width="1.25"/>
<path d="M26.8027 19.2863H33.462V22.1411H26.8027V19.2863Z" stroke="white" stroke-width="1.25"/>
<path fill-rule="evenodd" clip-rule="evenodd" d="M46.1763 10.4821C45.2682 10.1874 44.1878 10.04 42.935 10.04H36.755V28.3684H40.5386V22.0653H42.935C44.1542 22.0653 45.2178 21.9179 46.1259 21.6232C47.0339 21.32 47.7865 20.8989 48.3835 20.36C48.9804 19.8211 49.4261 19.1768 49.7204 18.4274C50.0146 17.6779 50.1618 16.8526 50.1618 15.9516C50.1618 15.1011 50.0188 14.3137 49.733 13.5895C49.4555 12.8653 49.0225 12.2421 48.4339 11.72C47.8453 11.1895 47.0928 10.7768 46.1763 10.4821ZM45.5331 18.3011C44.9866 18.8737 44.1205 19.16 42.935 19.16H40.5386V12.92H42.935C43.5235 12.92 44.0322 12.9916 44.461 13.1347C44.8899 13.2779 45.243 13.4842 45.5205 13.7537C45.8064 14.0147 46.0166 14.3347 46.1511 14.7137C46.294 15.0842 46.3655 15.4968 46.3655 15.9516C46.3655 16.9453 46.088 17.7284 45.5331 18.3011Z" stroke="white" stroke-width="1.25"/>
<path fill-rule="evenodd" clip-rule="evenodd" d="M57.7551 36.7895V1H1V36.7895H57.7551Z" stroke="white" stroke-width="1.25"/>
</svg>
