<svg width="24" height="24" viewBox="0 0 24 24" fill="none" xmlns="http://www.w3.org/2000/svg">
<path d="M17 2.00012H7C4.23858 2.00012 2 4.2387 2 7.00012V17.0001C2 19.7615 4.23858 22.0001 7 22.0001H17C19.7614 22.0001 22 19.7615 22 17.0001V7.00012C22 4.2387 19.7614 2.00012 17 2.00012Z" stroke="white" stroke-width="2" stroke-linecap="round" stroke-linejoin="round"/>
<path d="M16 11.3702C16.1234 12.2024 15.9812 13.0524 15.5937 13.7992C15.2062 14.546 14.5931 15.1516 13.8416 15.5299C13.0901 15.9081 12.2384 16.0398 11.4077 15.9061C10.5771 15.7724 9.80971 15.3803 9.21479 14.7853C8.61987 14.1904 8.22768 13.4231 8.09402 12.5924C7.96035 11.7617 8.09202 10.9101 8.47028 10.1586C8.84854 9.40703 9.45414 8.79392 10.2009 8.40642C10.9477 8.01892 11.7977 7.87677 12.63 8.00018C13.4789 8.12606 14.2648 8.52164 14.8716 9.12849C15.4785 9.73533 15.8741 10.5213 16 11.3702Z" stroke="white" stroke-width="2" stroke-linecap="round" stroke-linejoin="round"/>
<path d="M17.5 6.50012H17.51" stroke="white" stroke-width="2" stroke-linecap="round" stroke-linejoin="round"/>
</svg>
