<svg width="24" height="24" viewBox="0 0 24 24" fill="none" xmlns="http://www.w3.org/2000/svg">
<path d="M16 8.00012C17.5913 8.00012 19.1174 8.63226 20.2426 9.75748C21.3679 10.8827 22 12.4088 22 14.0001V21.0001H18V14.0001C18 13.4697 17.7893 12.961 17.4142 12.5859C17.0391 12.2108 16.5304 12.0001 16 12.0001C15.4696 12.0001 14.9609 12.2108 14.5858 12.5859C14.2107 12.961 14 13.4697 14 14.0001V21.0001H10V14.0001C10 12.4088 10.6321 10.8827 11.7574 9.75748C12.8826 8.63226 14.4087 8.00012 16 8.00012V8.00012Z" stroke="white" stroke-width="2" stroke-linecap="round" stroke-linejoin="round"/>
<path d="M6 9.00012H2V21.0001H6V9.00012Z" stroke="white" stroke-width="2" stroke-linecap="round" stroke-linejoin="round"/>
<path d="M4 6.00012C5.10457 6.00012 6 5.10469 6 4.00012C6 2.89555 5.10457 2.00012 4 2.00012C2.89543 2.00012 2 2.89555 2 4.00012C2 5.10469 2.89543 6.00012 4 6.00012Z" stroke="white" stroke-width="2" stroke-linecap="round" stroke-linejoin="round"/>
</svg>
