<svg width="206" height="40" viewBox="0 0 206 40" fill="none" xmlns="http://www.w3.org/2000/svg">
<path d="M18.3382 14.1137V19.1789H24.9218V22.16H18.3382V29.4737H14.5293V11.1453H26.183V14.1137H18.3382Z" fill="#3A0CA3"/>
<path d="M27.9048 20.3916H34.564V23.2463H27.9048V20.3916Z" fill="#3A0CA3"/>
<path fill-rule="evenodd" clip-rule="evenodd" d="M47.2784 11.5874C46.3703 11.2926 45.2898 11.1453 44.037 11.1453H37.857V29.4737H41.6407V23.1705H44.037C45.2562 23.1705 46.3198 23.0232 47.2279 22.7284C48.136 22.4253 48.8885 22.0042 49.4855 21.4653C50.0825 20.9263 50.5281 20.2821 50.8224 19.5326C51.1167 18.7832 51.2638 17.9579 51.2638 17.0568C51.2638 16.2063 51.1209 15.4189 50.835 14.6947C50.5575 13.9705 50.1245 13.3474 49.5359 12.8253C48.9474 12.2947 48.1948 11.8821 47.2784 11.5874ZM46.6351 19.4063C46.0886 19.9789 45.2226 20.2653 44.037 20.2653H41.6407V14.0253H44.037C44.6256 14.0253 45.1343 14.0968 45.5631 14.24C45.9919 14.3832 46.345 14.5895 46.6225 14.8589C46.9084 15.12 47.1186 15.44 47.2531 15.8189C47.3961 16.1895 47.4675 16.6021 47.4675 17.0568C47.4675 18.0505 47.1901 18.8337 46.6351 19.4063Z" fill="#3A0CA3"/>
<path d="M116.973 14.6568C116.856 14.8505 116.734 14.9937 116.608 15.0863C116.49 15.1705 116.334 15.2126 116.141 15.2126C115.956 15.2126 115.754 15.1495 115.536 15.0232C115.325 14.8884 115.077 14.7453 114.791 14.5937C114.506 14.4421 114.178 14.3032 113.808 14.1768C113.438 14.0421 113.005 13.9747 112.509 13.9747C111.634 13.9747 110.978 14.1726 110.541 14.5684C110.104 14.9558 109.885 15.4653 109.885 16.0968C109.885 16.501 110.003 16.8379 110.238 17.1074C110.482 17.3684 110.798 17.5958 111.184 17.7895C111.58 17.9832 112.025 18.1558 112.521 18.3074C113.017 18.4589 113.526 18.6274 114.047 18.8126C114.569 18.9895 115.077 19.2 115.573 19.4442C116.069 19.6884 116.511 19.9958 116.898 20.3663C117.293 20.7368 117.608 21.1916 117.844 21.7305C118.087 22.2611 118.209 22.9095 118.209 23.6758C118.209 24.5095 118.062 25.2926 117.768 26.0253C117.482 26.7495 117.066 27.3853 116.519 27.9326C115.973 28.4716 115.296 28.8968 114.489 29.2084C113.69 29.52 112.782 29.6758 111.764 29.6758C111.184 29.6758 110.604 29.6168 110.024 29.4989C109.452 29.3811 108.897 29.2168 108.359 29.0063C107.829 28.7958 107.329 28.5432 106.858 28.2484C106.387 27.9537 105.975 27.6253 105.622 27.2632L106.732 25.4695C106.825 25.3347 106.947 25.2253 107.098 25.1411C107.249 25.0484 107.409 25.0021 107.577 25.0021C107.804 25.0021 108.044 25.0863 108.296 25.2547C108.548 25.4232 108.838 25.6084 109.166 25.8105C109.494 26.0126 109.873 26.1979 110.301 26.3663C110.739 26.5347 111.26 26.6189 111.865 26.6189C112.748 26.6189 113.429 26.4168 113.909 26.0126C114.396 25.6084 114.64 25.0063 114.64 24.2063C114.64 23.7432 114.518 23.3684 114.274 23.0821C114.039 22.7958 113.728 22.5558 113.341 22.3621C112.954 22.1684 112.513 22.0042 112.017 21.8695C111.521 21.7263 111.012 21.5705 110.491 21.4021C109.969 21.2337 109.461 21.0316 108.965 20.7958C108.468 20.56 108.027 20.2484 107.64 19.8611C107.254 19.4737 106.938 18.9937 106.694 18.421C106.459 17.8484 106.341 17.1368 106.341 16.2863C106.341 15.6042 106.476 14.9432 106.745 14.3032C107.014 13.6632 107.409 13.0947 107.93 12.5979C108.452 12.101 109.091 11.701 109.847 11.3979C110.613 11.0947 111.487 10.9432 112.471 10.9432C113.572 10.9432 114.59 11.1158 115.523 11.461C116.465 11.7979 117.259 12.2695 117.907 12.8758L116.973 14.6568Z" fill="#3A0CA3"/>
<path fill-rule="evenodd" clip-rule="evenodd" d="M89.1139 24.0042C89.5679 22.8758 89.795 21.6421 89.795 20.3032C89.795 18.9726 89.5679 17.7474 89.1139 16.6274C88.6683 15.5074 88.0334 14.5432 87.2094 13.7347C86.3938 12.9179 85.4101 12.2821 84.2582 11.8274C83.1063 11.3726 81.8282 11.1453 80.4241 11.1453H73.3864V29.4737H80.4241C81.8282 29.4737 83.1063 29.2463 84.2582 28.7916C85.4101 28.3368 86.3938 27.7053 87.2094 26.8968C88.0334 26.0884 88.6683 25.1242 89.1139 24.0042ZM85.532 17.7137C85.7843 18.48 85.9104 19.3432 85.9104 20.3032C85.9104 21.2716 85.7843 22.1389 85.532 22.9053C85.2798 23.6716 84.9182 24.3242 84.4474 24.8632C83.9765 25.3937 83.4005 25.8021 82.7195 26.0884C82.0468 26.3663 81.2817 26.5053 80.4241 26.5053H77.1953V14.1137H80.4241C81.2817 14.1137 82.0468 14.2568 82.7195 14.5432C83.4005 14.8295 83.9765 15.2379 84.4474 15.7684C84.9182 16.2989 85.2798 16.9474 85.532 17.7137Z" fill="#3A0CA3"/>
<path d="M96.3847 18.8253V14.1137H104.229V11.1453H92.5758V29.4737H104.229V26.5053H96.3847V21.6926H102.489V18.8253H96.3847Z" fill="#3A0CA3"/>
<path d="M120.953 29.4737H124.762V11.1453H120.953V29.4737Z" fill="#3A0CA3"/>
<path d="M137.494 20.1389H143.775V27.7053C142.841 28.3874 141.845 28.8884 140.786 29.2084C139.735 29.52 138.621 29.6758 137.443 29.6758C135.938 29.6758 134.576 29.4442 133.357 28.9811C132.138 28.5095 131.095 27.8568 130.229 27.0232C129.363 26.1895 128.695 25.2 128.224 24.0547C127.753 22.9095 127.518 21.6589 127.518 20.3032C127.518 18.9305 127.74 17.6716 128.186 16.5263C128.64 15.3811 129.283 14.3958 130.116 13.5705C130.948 12.7453 131.953 12.101 133.13 11.6379C134.316 11.1747 135.64 10.9432 137.103 10.9432C137.86 10.9432 138.566 11.0063 139.222 11.1326C139.878 11.2505 140.483 11.4189 141.038 11.6379C141.593 11.8484 142.102 12.101 142.564 12.3958C143.026 12.6905 143.447 13.0147 143.825 13.3684L142.728 15.061C142.56 15.3305 142.341 15.4947 142.072 15.5537C141.803 15.6126 141.509 15.5453 141.189 15.3516C140.887 15.1663 140.588 15.0021 140.294 14.8589C140.008 14.7074 139.701 14.5768 139.373 14.4674C139.045 14.3579 138.688 14.2737 138.301 14.2147C137.914 14.1558 137.469 14.1263 136.964 14.1263C136.115 14.1263 135.346 14.2737 134.656 14.5684C133.967 14.8632 133.378 15.28 132.89 15.8189C132.411 16.3579 132.041 17.0063 131.781 17.7642C131.52 18.5221 131.39 19.3684 131.39 20.3032C131.39 21.3137 131.532 22.2189 131.818 23.0189C132.104 23.8105 132.508 24.48 133.029 25.0274C133.55 25.5747 134.173 25.9916 134.896 26.2779C135.627 26.5642 136.439 26.7074 137.33 26.7074C137.935 26.7074 138.473 26.6484 138.944 26.5305C139.424 26.4042 139.89 26.2358 140.344 26.0253V22.9432H138.276C138.032 22.9432 137.839 22.88 137.696 22.7537C137.561 22.6189 137.494 22.4505 137.494 22.2484V20.1389Z" fill="#3A0CA3"/>
<path d="M162.545 29.4737V11.1453H159.202V21.6295C159.202 21.8989 159.211 22.1853 159.228 22.4884C159.244 22.7832 159.27 23.0905 159.303 23.4105L150.121 11.7389C150.021 11.6126 149.928 11.5116 149.844 11.4358C149.76 11.36 149.672 11.3011 149.579 11.2589C149.487 11.2084 149.382 11.1789 149.264 11.1705C149.155 11.1537 149.02 11.1453 148.86 11.1453H146.868V29.4737H150.21V18.8758C150.21 18.6316 150.201 18.3663 150.185 18.08C150.176 17.7937 150.159 17.5032 150.134 17.2084L159.253 28.8295C159.446 29.0653 159.644 29.2337 159.846 29.3347C160.047 29.4274 160.295 29.4737 160.59 29.4737H162.545Z" fill="#3A0CA3"/>
<path d="M170.186 14.1137V18.8253H176.29V21.6926H170.186V26.5053H178.031V29.4737H166.377V11.1453H178.031V14.1137H170.186Z" fill="#3A0CA3"/>
<path fill-rule="evenodd" clip-rule="evenodd" d="M192.036 29.4737H195.454L191.191 22.88C191.023 22.6189 190.834 22.3958 190.623 22.2105C190.413 22.0168 190.186 21.8526 189.942 21.7179C190.556 21.5074 191.103 21.2295 191.582 20.8842C192.061 20.5389 192.465 20.1432 192.793 19.6968C193.121 19.2505 193.369 18.7579 193.537 18.2189C193.713 17.6716 193.802 17.0947 193.802 16.4884C193.802 15.7053 193.667 14.9895 193.398 14.341C193.129 13.6842 192.704 13.12 192.124 12.6484C191.544 12.1768 190.8 11.8105 189.892 11.5495C188.984 11.28 187.891 11.1453 186.613 11.1453H180.861V29.4737H184.645V22.4884H185.932C186.268 22.4884 186.52 22.5389 186.688 22.64C186.865 22.741 187.025 22.9011 187.168 23.12L190.649 28.7411C190.934 29.2295 191.397 29.4737 192.036 29.4737ZM188.177 19.5958C187.731 19.7474 187.201 19.8232 186.587 19.8232H184.645V14.0253H186.613C187.79 14.0253 188.664 14.2653 189.236 14.7453C189.816 15.2253 190.106 15.8989 190.106 16.7663C190.106 17.2042 190.039 17.6084 189.904 17.9789C189.77 18.3495 189.56 18.6737 189.274 18.9516C188.988 19.2211 188.622 19.4358 188.177 19.5958Z" fill="#3A0CA3"/>
<path fill-rule="evenodd" clip-rule="evenodd" d="M0 0V40H206V0H0ZM58.8571 37.8947V2.10526H2.10204V37.8947H58.8571ZM60.9592 37.8947V2.10526H203.898V37.8947H60.9592Z" fill="#3A0CA3"/>
</svg>
