<svg width="24" height="24" viewBox="0 0 24 24" fill="none" xmlns="http://www.w3.org/2000/svg">
<path d="M23 3.00017C22.0424 3.67565 20.9821 4.19228 19.86 4.53017C19.2577 3.83768 18.4573 3.34686 17.567 3.12409C16.6767 2.90133 15.7395 2.95736 14.8821 3.28462C14.0247 3.61188 13.2884 4.19457 12.773 4.95388C12.2575 5.7132 11.9877 6.6125 12 7.53017V8.53017C10.2426 8.57574 8.50127 8.18598 6.93101 7.39561C5.36074 6.60525 4.01032 5.4388 3 4.00017C3 4.00017 -1 13.0002 8 17.0002C5.94053 18.3981 3.48716 19.0991 1 19.0002C10 24.0002 21 19.0002 21 7.50017C20.9991 7.22162 20.9723 6.94376 20.92 6.67017C21.9406 5.66366 22.6608 4.39288 23 3.00017V3.00017Z" stroke="white" stroke-width="2" stroke-linecap="round" stroke-linejoin="round"/>
</svg>
