<svg width="24" height="24" viewBox="0 0 24 24" fill="none" xmlns="http://www.w3.org/2000/svg">
<path d="M22.54 6.42012C22.4212 5.94553 22.1792 5.51069 21.8386 5.15953C21.498 4.80836 21.0707 4.55331 20.6 4.42012C18.88 4.00012 12 4.00012 12 4.00012C12 4.00012 5.11996 4.00012 3.39996 4.46012C2.92921 4.59331 2.50194 4.84836 2.16131 5.19953C1.82068 5.55069 1.57875 5.98553 1.45996 6.46012C1.14518 8.20568 0.991197 9.97643 0.999961 11.7501C0.988741 13.5372 1.14273 15.3214 1.45996 17.0801C1.59092 17.54 1.83827 17.9583 2.17811 18.2946C2.51794 18.6309 2.93878 18.8739 3.39996 19.0001C5.11996 19.4601 12 19.4601 12 19.4601C12 19.4601 18.88 19.4601 20.6 19.0001C21.0707 18.8669 21.498 18.6119 21.8386 18.2607C22.1792 17.9095 22.4212 17.4747 22.54 17.0001C22.8523 15.2677 23.0063 13.5105 23 11.7501C23.0112 9.96308 22.8572 8.17882 22.54 6.42012V6.42012Z" stroke="white" stroke-width="2" stroke-linecap="round" stroke-linejoin="round"/>
<path d="M9.75 15.0201L15.5 11.7501L9.75 8.4801V15.0201Z" stroke="white" stroke-width="2" stroke-linecap="round" stroke-linejoin="round"/>
</svg>
